<svg xmlns="http://www.w3.org/2000/svg" xmlns:xlink="http://www.w3.org/1999/xlink" width="3741" height="1459" viewBox="0 0 3741 1459"><defs><path id="aoj8a" d="M-144-118c607.513 0 1100 315.416 1100 704.5C956 975.585 463.513 1291-144 1291c-607.513 0-1100-315.415-1100-704.5C-1244 197.416-751.513-118-144-118z"/><path id="aoj8b" d="M-734-68c600.333 0 1087 315.416 1087 704.5 0 389.085-486.667 704.5-1087 704.5-600.333 0-1087-315.415-1087-704.5C-1821 247.416-1334.333-68-734-68z"/><path id="aoj8c" d="M1113-237c629.052 0 1139 509.948 1139 1139s-509.948 1139-1139 1139S-26 1531.052-26 902 483.948-237 1113-237z"/><path id="aoj8d" d="M1193 10c476.07 0 862 385.93 862 862s-385.93 862-862 862-862-385.93-862-862S716.93 10 1193 10z"/><path id="aoj8e" d="M1483 355c327.505 0 593 265.495 593 593s-265.495 593-593 593-593-265.495-593-593 265.495-593 593-593z"/><linearGradient id="aoj8f" x1="-144" x2="-144" y1="-118" y2="1291" gradientUnits="userSpaceOnUse"><stop offset="0" stop-color="#0e72b7"/><stop offset="1" stop-color="#282b64"/></linearGradient><clipPath id="aoj8g"><use fill="#fff" xlink:href="#aoj8a"/></clipPath><linearGradient id="aoj8h" x1="-734" x2="-734" y1="-68" y2="1341" gradientUnits="userSpaceOnUse"><stop offset="0" stop-color="#0e72b7"/><stop offset="1" stop-color="#282b64"/></linearGradient><clipPath id="aoj8i"><use fill="#fff" xlink:href="#aoj8b"/></clipPath><clipPath id="aoj8j"><use fill="#fff" xlink:href="#aoj8c"/></clipPath><clipPath id="aoj8k"><use fill="#fff" xlink:href="#aoj8d"/></clipPath><clipPath id="aoj8l"><use fill="#fff" xlink:href="#aoj8e"/></clipPath></defs><g><g opacity=".1" transform="translate(1821 118)"><use fill="url(#aoj8f)" xlink:href="#aoj8a"/><use fill="#fff" fill-opacity="0" stroke="#4c6fa6" stroke-miterlimit="50" stroke-width="4" clip-path="url(&quot;#aoj8g&quot;)" xlink:href="#aoj8a"/></g><g opacity=".1" transform="translate(1821 118)"><use fill="url(#aoj8h)" xlink:href="#aoj8b"/><use fill="#fff" fill-opacity="0" stroke="#4c6fa6" stroke-miterlimit="50" stroke-width="4" clip-path="url(&quot;#aoj8i&quot;)" xlink:href="#aoj8b"/></g><g clip-path="url(#clip-20056)" opacity=".06" transform="translate(1821 118)"><use fill="#fff" fill-opacity="0" stroke="#fff" stroke-miterlimit="50" stroke-width="4" clip-path="url(&quot;#aoj8j&quot;)" xlink:href="#aoj8c"/></g><g clip-path="url(#clip-20056)" opacity=".06" transform="translate(1821 118)"><use fill="#fff" fill-opacity="0" stroke="#fff" stroke-miterlimit="50" stroke-width="4" clip-path="url(&quot;#aoj8k&quot;)" xlink:href="#aoj8d"/></g><g clip-path="url(#clip-20056)" opacity=".06" transform="translate(1821 118)"><use fill="#fff" fill-opacity="0" stroke="#fff" stroke-miterlimit="50" stroke-width="4" clip-path="url(&quot;#aoj8l&quot;)" xlink:href="#aoj8e"/></g></g></svg>